<mxfile host="app.diagrams.net" modified="2024-05-27T21:56:23.850Z" agent="Mozilla/5.0 (Windows NT 10.0; Win64; x64) AppleWebKit/537.36 (KHTML, like Gecko) Chrome/125.0.0.0 Safari/537.36" etag="mUaxYWnkqxW7M_ods5Nb" version="24.4.9" type="device">
  <diagram name="Page-1" id="2YBvvXClWsGukQMizWep">
    <mxGraphModel dx="1313" dy="696" grid="1" gridSize="10" guides="1" tooltips="1" connect="1" arrows="1" fold="1" page="1" pageScale="1" pageWidth="1169" pageHeight="827" background="#ffffff" math="0" shadow="0">
      <root>
        <mxCell id="0" />
        <mxCell id="1" parent="0" />
        <mxCell id="aM9ryv3xv72pqoxQDRHE-5" value="Tela inicial" style="shape=umlLifeline;perimeter=lifelinePerimeter;whiteSpace=wrap;html=1;container=0;dropTarget=0;collapsible=0;recursiveResize=0;outlineConnect=0;portConstraint=eastwest;newEdgeStyle={&quot;edgeStyle&quot;:&quot;elbowEdgeStyle&quot;,&quot;elbow&quot;:&quot;vertical&quot;,&quot;curved&quot;:0,&quot;rounded&quot;:0};" parent="1" vertex="1">
          <mxGeometry x="290" y="40" width="100" height="400" as="geometry" />
        </mxCell>
        <mxCell id="IctluAMHgXVuQKY7utmE-100" value="" style="html=1;points=[];perimeter=orthogonalPerimeter;outlineConnect=0;targetShapes=umlLifeline;portConstraint=eastwest;newEdgeStyle={&quot;edgeStyle&quot;:&quot;elbowEdgeStyle&quot;,&quot;elbow&quot;:&quot;vertical&quot;,&quot;curved&quot;:0,&quot;rounded&quot;:0};" parent="aM9ryv3xv72pqoxQDRHE-5" vertex="1">
          <mxGeometry x="45" y="150" width="10" height="50" as="geometry" />
        </mxCell>
        <mxCell id="IctluAMHgXVuQKY7utmE-80" value="" style="html=1;points=[];perimeter=orthogonalPerimeter;outlineConnect=0;targetShapes=umlLifeline;portConstraint=eastwest;newEdgeStyle={&quot;edgeStyle&quot;:&quot;elbowEdgeStyle&quot;,&quot;elbow&quot;:&quot;vertical&quot;,&quot;curved&quot;:0,&quot;rounded&quot;:0};" parent="aM9ryv3xv72pqoxQDRHE-5" vertex="1">
          <mxGeometry x="45" y="349" width="10" height="50" as="geometry" />
        </mxCell>
        <mxCell id="IctluAMHgXVuQKY7utmE-1" value="Funcionario" style="shape=umlActor;verticalLabelPosition=bottom;verticalAlign=top;html=1;" parent="1" vertex="1">
          <mxGeometry x="160" y="20" width="30" height="60" as="geometry" />
        </mxCell>
        <mxCell id="IctluAMHgXVuQKY7utmE-13" value="Sistema de&lt;br&gt;Cadastro" style="shape=umlLifeline;perimeter=lifelinePerimeter;whiteSpace=wrap;html=1;container=0;dropTarget=0;collapsible=0;recursiveResize=0;outlineConnect=0;portConstraint=eastwest;newEdgeStyle={&quot;edgeStyle&quot;:&quot;elbowEdgeStyle&quot;,&quot;elbow&quot;:&quot;vertical&quot;,&quot;curved&quot;:0,&quot;rounded&quot;:0};" parent="1" vertex="1">
          <mxGeometry x="460" y="40" width="100" height="400" as="geometry" />
        </mxCell>
        <mxCell id="IctluAMHgXVuQKY7utmE-14" value="" style="html=1;points=[];perimeter=orthogonalPerimeter;outlineConnect=0;targetShapes=umlLifeline;portConstraint=eastwest;newEdgeStyle={&quot;edgeStyle&quot;:&quot;elbowEdgeStyle&quot;,&quot;elbow&quot;:&quot;vertical&quot;,&quot;curved&quot;:0,&quot;rounded&quot;:0};" parent="IctluAMHgXVuQKY7utmE-13" vertex="1">
          <mxGeometry x="45" y="70" width="10" height="50" as="geometry" />
        </mxCell>
        <mxCell id="IctluAMHgXVuQKY7utmE-28" value="Sistema de login" style="shape=umlLifeline;perimeter=lifelinePerimeter;whiteSpace=wrap;html=1;container=0;dropTarget=0;collapsible=0;recursiveResize=0;outlineConnect=0;portConstraint=eastwest;newEdgeStyle={&quot;edgeStyle&quot;:&quot;elbowEdgeStyle&quot;,&quot;elbow&quot;:&quot;vertical&quot;,&quot;curved&quot;:0,&quot;rounded&quot;:0};" parent="1" vertex="1">
          <mxGeometry x="640" y="40" width="100" height="400" as="geometry" />
        </mxCell>
        <mxCell id="IctluAMHgXVuQKY7utmE-29" value="" style="html=1;points=[];perimeter=orthogonalPerimeter;outlineConnect=0;targetShapes=umlLifeline;portConstraint=eastwest;newEdgeStyle={&quot;edgeStyle&quot;:&quot;elbowEdgeStyle&quot;,&quot;elbow&quot;:&quot;vertical&quot;,&quot;curved&quot;:0,&quot;rounded&quot;:0};" parent="IctluAMHgXVuQKY7utmE-28" vertex="1">
          <mxGeometry x="45" y="130" width="10" height="50" as="geometry" />
        </mxCell>
        <mxCell id="IctluAMHgXVuQKY7utmE-30" value="Ficha de paciente" style="shape=umlLifeline;perimeter=lifelinePerimeter;whiteSpace=wrap;html=1;container=0;dropTarget=0;collapsible=0;recursiveResize=0;outlineConnect=0;portConstraint=eastwest;newEdgeStyle={&quot;edgeStyle&quot;:&quot;elbowEdgeStyle&quot;,&quot;elbow&quot;:&quot;vertical&quot;,&quot;curved&quot;:0,&quot;rounded&quot;:0};" parent="1" vertex="1">
          <mxGeometry x="770" y="40" width="100" height="400" as="geometry" />
        </mxCell>
        <mxCell id="IctluAMHgXVuQKY7utmE-31" value="" style="html=1;points=[];perimeter=orthogonalPerimeter;outlineConnect=0;targetShapes=umlLifeline;portConstraint=eastwest;newEdgeStyle={&quot;edgeStyle&quot;:&quot;elbowEdgeStyle&quot;,&quot;elbow&quot;:&quot;vertical&quot;,&quot;curved&quot;:0,&quot;rounded&quot;:0};" parent="IctluAMHgXVuQKY7utmE-30" vertex="1">
          <mxGeometry x="45" y="290" width="10" height="30" as="geometry" />
        </mxCell>
        <mxCell id="IctluAMHgXVuQKY7utmE-37" value="Prontuario" style="shape=umlLifeline;perimeter=lifelinePerimeter;whiteSpace=wrap;html=1;container=0;dropTarget=0;collapsible=0;recursiveResize=0;outlineConnect=0;portConstraint=eastwest;newEdgeStyle={&quot;edgeStyle&quot;:&quot;elbowEdgeStyle&quot;,&quot;elbow&quot;:&quot;vertical&quot;,&quot;curved&quot;:0,&quot;rounded&quot;:0};" parent="1" vertex="1">
          <mxGeometry x="940" y="40" width="100" height="400" as="geometry" />
        </mxCell>
        <mxCell id="IctluAMHgXVuQKY7utmE-38" value="" style="html=1;points=[];perimeter=orthogonalPerimeter;outlineConnect=0;targetShapes=umlLifeline;portConstraint=eastwest;newEdgeStyle={&quot;edgeStyle&quot;:&quot;elbowEdgeStyle&quot;,&quot;elbow&quot;:&quot;vertical&quot;,&quot;curved&quot;:0,&quot;rounded&quot;:0};" parent="IctluAMHgXVuQKY7utmE-37" vertex="1">
          <mxGeometry x="45" y="200" width="10" height="60" as="geometry" />
        </mxCell>
        <mxCell id="IctluAMHgXVuQKY7utmE-51" value="Recebe o link para cadastro" style="html=1;verticalAlign=bottom;endArrow=block;edgeStyle=elbowEdgeStyle;elbow=vertical;curved=0;rounded=0;entryX=1;entryY=0;entryDx=0;entryDy=5;entryPerimeter=0;" parent="1" source="IctluAMHgXVuQKY7utmE-14" edge="1">
          <mxGeometry x="0.5077" relative="1" as="geometry">
            <mxPoint x="500" y="115" as="sourcePoint" />
            <Array as="points" />
            <mxPoint x="180" y="117.5" as="targetPoint" />
            <mxPoint as="offset" />
          </mxGeometry>
        </mxCell>
        <mxCell id="IctluAMHgXVuQKY7utmE-52" value="&lt;div&gt;Realiza Cadastro&lt;/div&gt;" style="html=1;verticalAlign=bottom;endArrow=block;edgeStyle=elbowEdgeStyle;elbow=vertical;curved=0;rounded=0;exitX=1;exitY=0;exitDx=0;exitDy=5;exitPerimeter=0;" parent="1" target="IctluAMHgXVuQKY7utmE-14" edge="1">
          <mxGeometry x="0.4769" relative="1" as="geometry">
            <mxPoint x="180" y="150" as="sourcePoint" />
            <Array as="points">
              <mxPoint x="250" y="150" />
            </Array>
            <mxPoint x="350" y="150.5" as="targetPoint" />
            <mxPoint as="offset" />
          </mxGeometry>
        </mxCell>
        <mxCell id="IctluAMHgXVuQKY7utmE-54" value="&lt;div&gt;Paciente&lt;/div&gt;&lt;div&gt;&lt;br&gt;&lt;/div&gt;" style="shape=umlActor;verticalLabelPosition=bottom;verticalAlign=top;html=1;" parent="1" vertex="1">
          <mxGeometry x="90" y="20" width="30" height="60" as="geometry" />
        </mxCell>
        <mxCell id="IctluAMHgXVuQKY7utmE-55" value="" style="html=1;points=[[0,0,0,0,5],[0,1,0,0,-5],[1,0,0,0,5],[1,1,0,0,-5]];perimeter=orthogonalPerimeter;outlineConnect=0;targetShapes=umlLifeline;portConstraint=eastwest;newEdgeStyle={&quot;curved&quot;:0,&quot;rounded&quot;:0};" parent="1" vertex="1">
          <mxGeometry x="40" y="330" width="10" height="50" as="geometry" />
        </mxCell>
        <mxCell id="IctluAMHgXVuQKY7utmE-56" value="Usuario" style="shape=umlActor;verticalLabelPosition=bottom;verticalAlign=top;html=1;" parent="1" vertex="1">
          <mxGeometry x="30" y="20" width="30" height="60" as="geometry" />
        </mxCell>
        <mxCell id="IctluAMHgXVuQKY7utmE-57" value="Visualizar a pagina inicial" style="html=1;verticalAlign=bottom;endArrow=block;edgeStyle=elbowEdgeStyle;elbow=horizontal;curved=0;rounded=0;" parent="1" edge="1">
          <mxGeometry x="0.6607" relative="1" as="geometry">
            <mxPoint x="325" y="350" as="sourcePoint" />
            <Array as="points">
              <mxPoint x="50" y="350" />
            </Array>
            <mxPoint x="335" y="350" as="targetPoint" />
            <mxPoint as="offset" />
          </mxGeometry>
        </mxCell>
        <mxCell id="IctluAMHgXVuQKY7utmE-58" value="Entrega&lt;br&gt;Dados" style="html=1;verticalAlign=bottom;endArrow=block;edgeStyle=elbowEdgeStyle;elbow=vertical;curved=0;rounded=0;" parent="1" source="IctluAMHgXVuQKY7utmE-53" target="IctluAMHgXVuQKY7utmE-77" edge="1">
          <mxGeometry relative="1" as="geometry">
            <mxPoint x="110" y="295" as="sourcePoint" />
            <Array as="points">
              <mxPoint x="135" y="260" />
              <mxPoint x="135" y="260" />
            </Array>
            <mxPoint x="180" y="290" as="targetPoint" />
            <mxPoint as="offset" />
          </mxGeometry>
        </mxCell>
        <mxCell id="IctluAMHgXVuQKY7utmE-59" value="Realiza Login" style="html=1;verticalAlign=bottom;endArrow=block;edgeStyle=elbowEdgeStyle;elbow=vertical;curved=0;rounded=0;exitX=1;exitY=0;exitDx=0;exitDy=5;exitPerimeter=0;" parent="1" edge="1">
          <mxGeometry x="0.6879" relative="1" as="geometry">
            <mxPoint x="180" y="180" as="sourcePoint" />
            <Array as="points">
              <mxPoint x="250" y="180" />
            </Array>
            <mxPoint x="689.5" y="180" as="targetPoint" />
            <mxPoint y="1" as="offset" />
          </mxGeometry>
        </mxCell>
        <mxCell id="IctluAMHgXVuQKY7utmE-60" value="Informações de login &lt;br&gt;registradas na tela inicial" style="html=1;verticalAlign=bottom;endArrow=open;dashed=1;endSize=8;edgeStyle=elbowEdgeStyle;elbow=vertical;curved=0;rounded=0;" parent="1" target="IctluAMHgXVuQKY7utmE-100" edge="1">
          <mxGeometry x="0.4631" relative="1" as="geometry">
            <mxPoint x="350" y="210" as="targetPoint" />
            <Array as="points">
              <mxPoint x="620.5" y="214.5" />
            </Array>
            <mxPoint x="695.5" y="214.5" as="sourcePoint" />
            <mxPoint as="offset" />
          </mxGeometry>
        </mxCell>
        <mxCell id="IctluAMHgXVuQKY7utmE-61" value="Se for médico" style="html=1;verticalAlign=bottom;endArrow=block;edgeStyle=elbowEdgeStyle;elbow=vertical;curved=0;rounded=0;" parent="1" source="IctluAMHgXVuQKY7utmE-77" target="IctluAMHgXVuQKY7utmE-38" edge="1">
          <mxGeometry x="-0.0618" relative="1" as="geometry">
            <mxPoint x="200" y="270" as="sourcePoint" />
            <Array as="points">
              <mxPoint x="250" y="260" />
            </Array>
            <mxPoint x="689.5" y="260" as="targetPoint" />
            <mxPoint as="offset" />
          </mxGeometry>
        </mxCell>
        <mxCell id="IctluAMHgXVuQKY7utmE-63" value="Registrar prontuario" style="text;whiteSpace=wrap;html=1;" parent="1" vertex="1">
          <mxGeometry x="850" y="230" width="110" height="40" as="geometry" />
        </mxCell>
        <mxCell id="IctluAMHgXVuQKY7utmE-64" value="Alt" style="shape=umlFrame;whiteSpace=wrap;html=1;pointerEvents=0;" parent="1" vertex="1">
          <mxGeometry x="440" y="230" width="560" height="160" as="geometry" />
        </mxCell>
        <mxCell id="IctluAMHgXVuQKY7utmE-66" value="" style="html=1;verticalAlign=bottom;endArrow=none;dashed=1;endSize=8;edgeStyle=elbowEdgeStyle;elbow=vertical;curved=0;rounded=0;endFill=0;" parent="1" target="aM9ryv3xv72pqoxQDRHE-5" edge="1">
          <mxGeometry x="0.4761" relative="1" as="geometry">
            <mxPoint x="370" y="320" as="targetPoint" />
            <Array as="points">
              <mxPoint x="450.5" y="320" />
            </Array>
            <mxPoint x="989.5" y="320" as="sourcePoint" />
            <mxPoint as="offset" />
          </mxGeometry>
        </mxCell>
        <mxCell id="IctluAMHgXVuQKY7utmE-67" value="Se não" style="html=1;verticalAlign=bottom;endArrow=block;edgeStyle=elbowEdgeStyle;elbow=vertical;curved=0;rounded=0;" parent="1" source="IctluAMHgXVuQKY7utmE-13" target="IctluAMHgXVuQKY7utmE-31" edge="1">
          <mxGeometry x="-0.8003" relative="1" as="geometry">
            <mxPoint x="530" y="350" as="sourcePoint" />
            <Array as="points" />
            <mxPoint x="790" y="350" as="targetPoint" />
            <mxPoint as="offset" />
          </mxGeometry>
        </mxCell>
        <mxCell id="IctluAMHgXVuQKY7utmE-68" value="Registrar paciente" style="text;whiteSpace=wrap;html=1;" parent="1" vertex="1">
          <mxGeometry x="700" y="320" width="100" height="40" as="geometry" />
        </mxCell>
        <mxCell id="IctluAMHgXVuQKY7utmE-74" value="" style="html=1;points=[];perimeter=orthogonalPerimeter;outlineConnect=0;targetShapes=umlLifeline;portConstraint=eastwest;newEdgeStyle={&quot;edgeStyle&quot;:&quot;elbowEdgeStyle&quot;,&quot;elbow&quot;:&quot;vertical&quot;,&quot;curved&quot;:0,&quot;rounded&quot;:0};" parent="1" vertex="1">
          <mxGeometry x="505" y="250" width="10" height="100" as="geometry" />
        </mxCell>
        <mxCell id="IctluAMHgXVuQKY7utmE-75" value="" style="endArrow=none;html=1;rounded=0;dashed=1;" parent="1" source="IctluAMHgXVuQKY7utmE-77" edge="1">
          <mxGeometry relative="1" as="geometry">
            <mxPoint x="174.5" y="120" as="sourcePoint" />
            <mxPoint x="175" y="440" as="targetPoint" />
          </mxGeometry>
        </mxCell>
        <mxCell id="IctluAMHgXVuQKY7utmE-76" value="" style="resizable=0;html=1;whiteSpace=wrap;align=right;verticalAlign=bottom;" parent="IctluAMHgXVuQKY7utmE-75" connectable="0" vertex="1">
          <mxGeometry x="1" relative="1" as="geometry" />
        </mxCell>
        <mxCell id="IctluAMHgXVuQKY7utmE-78" value="" style="endArrow=none;html=1;rounded=0;dashed=1;" parent="1" source="IctluAMHgXVuQKY7utmE-96" target="IctluAMHgXVuQKY7utmE-77" edge="1">
          <mxGeometry relative="1" as="geometry">
            <mxPoint x="174.5" y="120" as="sourcePoint" />
            <mxPoint x="175" y="400" as="targetPoint" />
          </mxGeometry>
        </mxCell>
        <mxCell id="IctluAMHgXVuQKY7utmE-77" value="" style="html=1;points=[];perimeter=orthogonalPerimeter;outlineConnect=0;targetShapes=umlLifeline;portConstraint=eastwest;newEdgeStyle={&quot;edgeStyle&quot;:&quot;elbowEdgeStyle&quot;,&quot;elbow&quot;:&quot;vertical&quot;,&quot;curved&quot;:0,&quot;rounded&quot;:0};" parent="1" vertex="1">
          <mxGeometry x="170" y="240" width="10" height="50" as="geometry" />
        </mxCell>
        <mxCell id="IctluAMHgXVuQKY7utmE-81" value="" style="endArrow=none;html=1;rounded=0;dashed=1;" parent="1" edge="1">
          <mxGeometry relative="1" as="geometry">
            <mxPoint x="45" y="120" as="sourcePoint" />
            <mxPoint x="44.5" y="330" as="targetPoint" />
          </mxGeometry>
        </mxCell>
        <mxCell id="IctluAMHgXVuQKY7utmE-82" value="" style="resizable=0;html=1;whiteSpace=wrap;align=right;verticalAlign=bottom;" parent="IctluAMHgXVuQKY7utmE-81" connectable="0" vertex="1">
          <mxGeometry x="1" relative="1" as="geometry" />
        </mxCell>
        <mxCell id="aM9ryv3xv72pqoxQDRHE-6" value="" style="html=1;points=[];perimeter=orthogonalPerimeter;outlineConnect=0;targetShapes=umlLifeline;portConstraint=eastwest;newEdgeStyle={&quot;edgeStyle&quot;:&quot;elbowEdgeStyle&quot;,&quot;elbow&quot;:&quot;vertical&quot;,&quot;curved&quot;:0,&quot;rounded&quot;:0};" parent="1" vertex="1">
          <mxGeometry x="335" y="310" width="10" height="50" as="geometry" />
        </mxCell>
        <mxCell id="IctluAMHgXVuQKY7utmE-53" value="" style="html=1;points=[[0,0,0,0,5],[0,1,0,0,-5],[1,0,0,0,5],[1,1,0,0,-5]];perimeter=orthogonalPerimeter;outlineConnect=0;targetShapes=umlLifeline;portConstraint=eastwest;newEdgeStyle={&quot;curved&quot;:0,&quot;rounded&quot;:0};" parent="1" vertex="1">
          <mxGeometry x="100" y="245" width="10" height="40" as="geometry" />
        </mxCell>
        <mxCell id="IctluAMHgXVuQKY7utmE-92" value="" style="endArrow=none;html=1;rounded=0;dashed=1;" parent="1" source="IctluAMHgXVuQKY7utmE-53" edge="1">
          <mxGeometry relative="1" as="geometry">
            <mxPoint x="105" y="220" as="sourcePoint" />
            <mxPoint x="105" y="440" as="targetPoint" />
          </mxGeometry>
        </mxCell>
        <mxCell id="IctluAMHgXVuQKY7utmE-93" value="" style="resizable=0;html=1;whiteSpace=wrap;align=right;verticalAlign=bottom;" parent="IctluAMHgXVuQKY7utmE-92" connectable="0" vertex="1">
          <mxGeometry x="1" relative="1" as="geometry" />
        </mxCell>
        <mxCell id="IctluAMHgXVuQKY7utmE-94" value="" style="endArrow=none;html=1;rounded=0;dashed=1;" parent="1" target="IctluAMHgXVuQKY7utmE-53" edge="1">
          <mxGeometry relative="1" as="geometry">
            <mxPoint x="105" y="120" as="sourcePoint" />
            <mxPoint x="104.5" y="160" as="targetPoint" />
          </mxGeometry>
        </mxCell>
        <mxCell id="IctluAMHgXVuQKY7utmE-95" value="" style="resizable=0;html=1;whiteSpace=wrap;align=right;verticalAlign=bottom;" parent="IctluAMHgXVuQKY7utmE-94" connectable="0" vertex="1">
          <mxGeometry x="1" relative="1" as="geometry" />
        </mxCell>
        <mxCell id="IctluAMHgXVuQKY7utmE-97" value="" style="endArrow=none;html=1;rounded=0;dashed=1;" parent="1" source="IctluAMHgXVuQKY7utmE-98" target="IctluAMHgXVuQKY7utmE-96" edge="1">
          <mxGeometry relative="1" as="geometry">
            <mxPoint x="174.5" y="120" as="sourcePoint" />
            <mxPoint x="175" y="240" as="targetPoint" />
          </mxGeometry>
        </mxCell>
        <mxCell id="IctluAMHgXVuQKY7utmE-96" value="" style="html=1;points=[[0,0,0,0,5],[0,1,0,0,-5],[1,0,0,0,5],[1,1,0,0,-5]];perimeter=orthogonalPerimeter;outlineConnect=0;targetShapes=umlLifeline;portConstraint=eastwest;newEdgeStyle={&quot;curved&quot;:0,&quot;rounded&quot;:0};" parent="1" vertex="1">
          <mxGeometry x="170" y="170" width="10" height="60" as="geometry" />
        </mxCell>
        <mxCell id="IctluAMHgXVuQKY7utmE-99" value="" style="endArrow=none;html=1;rounded=0;dashed=1;" parent="1" target="IctluAMHgXVuQKY7utmE-98" edge="1">
          <mxGeometry relative="1" as="geometry">
            <mxPoint x="174.5" y="120" as="sourcePoint" />
            <mxPoint x="175" y="190" as="targetPoint" />
          </mxGeometry>
        </mxCell>
        <mxCell id="IctluAMHgXVuQKY7utmE-98" value="" style="html=1;points=[];perimeter=orthogonalPerimeter;outlineConnect=0;targetShapes=umlLifeline;portConstraint=eastwest;newEdgeStyle={&quot;edgeStyle&quot;:&quot;elbowEdgeStyle&quot;,&quot;elbow&quot;:&quot;vertical&quot;,&quot;curved&quot;:0,&quot;rounded&quot;:0};" parent="1" vertex="1">
          <mxGeometry x="170" y="110" width="10" height="50" as="geometry" />
        </mxCell>
        <mxCell id="IctluAMHgXVuQKY7utmE-101" value="Banco de dados" style="shape=umlLifeline;perimeter=lifelinePerimeter;whiteSpace=wrap;html=1;container=0;dropTarget=0;collapsible=0;recursiveResize=0;outlineConnect=0;portConstraint=eastwest;newEdgeStyle={&quot;edgeStyle&quot;:&quot;elbowEdgeStyle&quot;,&quot;elbow&quot;:&quot;vertical&quot;,&quot;curved&quot;:0,&quot;rounded&quot;:0};" parent="1" vertex="1">
          <mxGeometry x="1060" y="40" width="100" height="400" as="geometry" />
        </mxCell>
        <mxCell id="IctluAMHgXVuQKY7utmE-102" value="" style="html=1;points=[];perimeter=orthogonalPerimeter;outlineConnect=0;targetShapes=umlLifeline;portConstraint=eastwest;newEdgeStyle={&quot;edgeStyle&quot;:&quot;elbowEdgeStyle&quot;,&quot;elbow&quot;:&quot;vertical&quot;,&quot;curved&quot;:0,&quot;rounded&quot;:0};" parent="IctluAMHgXVuQKY7utmE-101" vertex="1">
          <mxGeometry x="45" y="70" width="10" height="330" as="geometry" />
        </mxCell>
        <mxCell id="IctluAMHgXVuQKY7utmE-103" value="Armazenar &lt;br&gt;paciente" style="html=1;verticalAlign=bottom;endArrow=block;edgeStyle=elbowEdgeStyle;elbow=vertical;curved=0;rounded=0;exitX=1.5;exitY=0.667;exitDx=0;exitDy=0;exitPerimeter=0;" parent="1" source="IctluAMHgXVuQKY7utmE-31" target="IctluAMHgXVuQKY7utmE-101" edge="1">
          <mxGeometry x="0.5743" relative="1" as="geometry">
            <mxPoint x="850" y="350" as="sourcePoint" />
            <Array as="points" />
            <mxPoint x="1090" y="350" as="targetPoint" />
            <mxPoint as="offset" />
          </mxGeometry>
        </mxCell>
        <mxCell id="IctluAMHgXVuQKY7utmE-104" value="Armazenar &lt;br&gt;prontuario" style="html=1;verticalAlign=bottom;endArrow=block;edgeStyle=elbowEdgeStyle;elbow=vertical;curved=0;rounded=0;" parent="1" source="IctluAMHgXVuQKY7utmE-38" target="IctluAMHgXVuQKY7utmE-101" edge="1">
          <mxGeometry x="-0.0393" relative="1" as="geometry">
            <mxPoint x="1010" y="285" as="sourcePoint" />
            <Array as="points" />
            <mxPoint x="1090" y="285" as="targetPoint" />
            <mxPoint as="offset" />
          </mxGeometry>
        </mxCell>
        <mxCell id="IctluAMHgXVuQKY7utmE-105" value="Armazenar &lt;br&gt;funcionario" style="html=1;verticalAlign=bottom;endArrow=block;edgeStyle=elbowEdgeStyle;elbow=vertical;curved=0;rounded=0;" parent="1" edge="1">
          <mxGeometry x="0.7833" relative="1" as="geometry">
            <mxPoint x="515" y="160" as="sourcePoint" />
            <Array as="points" />
            <mxPoint x="1115" y="160" as="targetPoint" />
            <mxPoint as="offset" />
          </mxGeometry>
        </mxCell>
        <mxCell id="IctluAMHgXVuQKY7utmE-108" value="" style="endArrow=none;html=1;rounded=0;dashed=1;" parent="1" source="IctluAMHgXVuQKY7utmE-55" edge="1">
          <mxGeometry relative="1" as="geometry">
            <mxPoint x="45" y="400" as="sourcePoint" />
            <mxPoint x="45" y="440" as="targetPoint" />
          </mxGeometry>
        </mxCell>
        <mxCell id="IctluAMHgXVuQKY7utmE-109" value="" style="resizable=0;html=1;whiteSpace=wrap;align=right;verticalAlign=bottom;" parent="IctluAMHgXVuQKY7utmE-108" connectable="0" vertex="1">
          <mxGeometry x="1" relative="1" as="geometry" />
        </mxCell>
        <mxCell id="IctluAMHgXVuQKY7utmE-114" value="Ler Dados e&lt;br&gt;formar estastisticas" style="html=1;verticalAlign=bottom;endArrow=block;edgeStyle=elbowEdgeStyle;elbow=vertical;curved=0;rounded=0;" parent="1" target="aM9ryv3xv72pqoxQDRHE-5" edge="1">
          <mxGeometry x="0.7637" y="-1" relative="1" as="geometry">
            <mxPoint x="1105" y="430.5" as="sourcePoint" />
            <Array as="points" />
            <mxPoint x="780" y="430" as="targetPoint" />
            <mxPoint as="offset" />
          </mxGeometry>
        </mxCell>
      </root>
    </mxGraphModel>
  </diagram>
</mxfile>
